Genre:Action
Language:English  http://www.imdb.com/title/tt1237373/
Source:BluRay.x264-aAF


Format : Matroska
File size : 1.63 GiB
Duration : 1h 38mn
Overall bit rate : 2 366 Kbps


Video
Format settings, CABAC : Yes
Format settings, ReFrames : 4 frames
Codec ID : V_MPEG4/ISO/AVC
Duration : 1h 38mn
Bit rate : 2 095 Kbps
Nominal bit rate : 2 200 Kbps
Width : 1 280 pixels
Height : 720 pixels
Display aspect ratio : 16:9
Frame rate mode : Variable
Frame rate : 23.976 fps
Color space : YUV
Chroma subsampling : 4:2:0
Bit depth : 8 bits
Scan type : Progressive
Bits/(Pixel*Frame) : 0.095
Stream size : 1.44 GiB (89%)
Writing library : x264

Audio
ID : 2
Format : AC-3
Format/Info : Audio Coding 3
Mode extension : CM (complete main)
Codec ID : A_AC3
Duration : 1h 38mn
Bit rate mode : Constant
Bit rate : 224 Kbps
Channel(s) : 6 channels
Channel positions : Front: L C R, Side: L R, LFE
Sampling rate : 48.0 KHz
Bit depth : 16 bits
Video delay : -42ms
Stream size : 158 MiB (9%)
Language : English


Plot:
Hunted by terrorists and betrayed by the country he defends. A story about a true American patriot.
